 ######## ######## ######## ##          ######## ########  ######## ######## 
 ##       ##       ##       ##          ##       ##     ## ##       ##       
 ##       ##       ##       ##          ##       ##     ## ##       ##       
 ######   ######   ######   ##          ######   ########  ######   ######   
 ##       ##       ##       ##          ##       ##   ##   ##       ##       
 ##       ##       ##       ##          ##       ##    ##  ##       ##       
 ##       ######## ######## ########    ##       ##     ## ######## ######## 

 Genre:Animation | Action | Adventure
 Language:English
 IMDb:  http://www.imdb.com/title/tt1305591/
 Source:Tajna.Krasnoj.Planety.2011.D.DVD Thanks!

 Format : MPEG-4
 Format profile : Base Media
 Codec ID : isom
 File size : 1.17 GiB
 Duration : 1h 24mn
 Overall bit rate : 1 981 Kbps

 Video
 ID : 1
 Format : AVC
 Format/Info : Advanced Video Codec
 Format profile : High@L4.1
 Format settings, CABAC : Yes
 Format settings, ReFrames : 3 frames
 Codec ID : avc1
 Codec ID/Info : Advanced Video Coding
 Duration : 1h 24mn
 Bit rate mode : Variable
 Bit rate : 1 587 Kbps
 Maximum bit rate : 9 823 Kbps
 Width : 720 pixels
 Height : 304 pixels
 Display aspect ratio : 2.35:1
 Frame rate mode : Constant
 Frame rate : 25.000 fps
 Color space : YUV
 Chroma subsampling : 4:2:0
 Bit depth : 8 bits
 Scan type : Progressive
 Bits/(Pixel*Frame) : 0.290
 Stream size : 964 MiB (81%)
 Writing library : x264

 Audio
 ID : 2
 Format : AAC
 Format/Info : Advanced Audio Codec
 Format version : Version 4
 Format profile : LC
 Format settings, SBR : No
 Codec ID : 40
 Duration : 1h 24mn
 Bit rate mode : Variable
 Bit rate : 384 Kbps
 Maximum bit rate : 494 Kbps
 Channel(s) : 6 channels
 Channel positions : Front: L C R, Side: L R, LFE
 Sampling rate : 48.0 KHz
 Stream size : 230 MiB (19%)


 Plot:
 A young boy named Milo gains a deeper appreciation for his mom after 
 Martians come to Earth to take her away




 ==================================  http://thepiratebay.org/user/hiest
 ==================================




 Screen Shots:
  http://leetleech.org/images/68675759857966204845.png
  http://leetleech.org/images/33850843718609563259.png
  http://leetleech.org/images/65335097159924579730.png
  http://leetleech.org/images/31866939524121646144.png
  http://leetleech.org/images/73684549734420264410.png

 ######## ######## ######## ##          ######## ########  ######## ######## 
 ##       ##       ##       ##          ##       ##     ## ##       ##       
 ##       ##       ##       ##          ##       ##     ## ##       ##       
 ######   ######   ######   ##          ######   ########  ######   ######   
 ##       ##       ##       ##          ##       ##   ##   ##       ##       
 ##       ##       ##       ##          ##       ##    ##  ##       ##       
 ##       ######## ######## ########    ##       ##     ## ######## ########